# xmcd CD database file
# Generated: Son Sep 28 00:55:43 2003 by KSCD
# 
# Track frame offsets:
#       150
#       13470
#       25535
#       37577
#       50331
#       63225
#       79189
#       87333
#       104299
#       115396
#       127723
#       137902
#       151050
#       172661
#       184043
#       195512
#       207317
#       217308
#
# Disc length: 3068 seconds
#
# Revision: 0
# Processed by: cddbd v1.4PL0 Copyright (c) Steve Scherf et al.
# Submitted via: Kscd 1.3.3
#
DISCID=e70bfa12
DTITLE=Various Artist - The story of Rhythm and Blues [CD1)
DYEAR=1900
DGENRE=
TTITLE0=Roy Brown - Good rockin' tonight 
TTITLE1=Julia Lee - King size papa
TTITLE2=King Perry - Keep a dollar in your pocket 
TTITLE3=Louis Jordan - Beans and cornbread 
TTITLE4=Bullmoose Jackson - Sneaky Pete
TTITLE5=Muddy Waters - Corinne, Corinne
TTITLE6=Nat King Cole - Crazy Rhythm 
TTITLE7=Howlin' Wolf - Dust my broom 
TTITLE8=Lowell Fusion - Come back baby 
TTITLE9=Roy Milton and his Solid Soldiers - Big fat mama
TTITLE10=Big De Noone - E ramble
TTITLE11=Mabel Scott - Just give me a man 
TTITLE12=Paul Williams - The twister 
TTITLE13=Johnny Moores three Blazers - Groovie movie blues 
TTITLE14=Little Brother Montgomery - Faresh street jive 
TTITLE15=Larry Darnell - For you my love
TTITLE16=John Tyler - Oakie boogie 
TTITLE17=The Ravens - Send for me if you need me 
EXTD=(c) Digimode Entertainment Ltd. UK
EXTT0=Brown
EXTT1=Carter - Vance
EXTT2=Perry
EXTT3=Clark - Moore
EXTT4=Nix
EXTT5=Morganfield
EXTT6=Meyer - Kahn
EXTT7=Johnson
EXTT8=Davis
EXTT9=Millinder - Simon
EXTT10=De Noone
EXTT11=Scott
EXTT12=Williams
EXTT13=Coppage - Moore - Brown
EXTT14=Montgomery
EXTT15=Gayton
EXTT16=Guthrie
EXTT17=Ricks - Biggs
PLAYORDER=
